<svg xmlns="http://www.w3.org/2000/svg" width="72.011" height="70.857" viewBox="0 0 72.011 70.857">
  <g id="Group_9" data-name="Group 9" transform="translate(-82.388 -52.823)">
    <g id="Group_50645" data-name="Group 50645" transform="translate(82.388 52.823)">
      <g id="Layer_24" data-name="Layer 24" transform="translate(0 0)">
        <path id="Path_36949" data-name="Path 36949" d="M30,22h4.646v2.323H30Z" transform="translate(3.683 1.236)" fill="#b7b9bf"/>
        <path id="Path_36950" data-name="Path 36950" d="M73.011,27.453v-.3a25.587,25.587,0,0,0-.348-4.2l-.505-3.036A3.474,3.474,0,0,0,68.721,17H68.01a3.474,3.474,0,0,0-3.437,2.912l-.505,3.036a25.588,25.588,0,0,0-.348,4.2v.3A3.484,3.484,0,0,0,67.2,30.938v2.323h-3.86L61.9,29.643a3.469,3.469,0,0,0-3.236-2.189h-1.5a3.469,3.469,0,0,0-3.236,2.191L52.48,33.261h-2.7V29.1l.34.34,1.642-1.642L44.8,20.825a1.161,1.161,0,0,0-.454-.28l-6.969-2.323a1.151,1.151,0,0,0-.734,0L29.67,20.545a1.161,1.161,0,0,0-.454.28l-6.969,6.969,1.642,1.642.34-.34v4.165H17.261V30.938a3.484,3.484,0,0,0,3.484-3.484v-.3a25.589,25.589,0,0,0-.348-4.2l-.505-3.036A3.474,3.474,0,0,0,16.455,17h-.711a3.474,3.474,0,0,0-3.437,2.912L11.8,22.948a25.588,25.588,0,0,0-.348,4.2v.3a3.484,3.484,0,0,0,3.484,3.484v2.323H6.807V30.938a3.484,3.484,0,0,0,3.484-3.484v-.3a25.588,25.588,0,0,0-.348-4.2l-.505-3.036A3.474,3.474,0,0,0,6,17H5.29a3.474,3.474,0,0,0-3.437,2.912l-.505,3.036A25.588,25.588,0,0,0,1,27.149v.3a3.484,3.484,0,0,0,3.484,3.484v2.323H2.161A1.161,1.161,0,0,0,1,34.422V69.266a1.161,1.161,0,0,0,1.161,1.161H71.85a1.161,1.161,0,0,0,1.161-1.161V34.422a1.161,1.161,0,0,0-1.161-1.161H69.527V30.938a3.484,3.484,0,0,0,3.484-3.484Zm-59.235,0v-.3a23.4,23.4,0,0,1,.316-3.82l.506-3.036a1.161,1.161,0,0,1,1.145-.97h.711a1.161,1.161,0,0,1,1.145.97l.506,3.036a23.4,23.4,0,0,1,.316,3.82v.3a1.161,1.161,0,0,1-1.161,1.161H14.938A1.161,1.161,0,0,1,13.776,27.453Zm-10.453,0v-.3a23.4,23.4,0,0,1,.316-3.82l.506-3.036a1.161,1.161,0,0,1,1.145-.97H6a1.161,1.161,0,0,1,1.145.97l.506,3.036a23.4,23.4,0,0,1,.316,3.82v.3a1.161,1.161,0,0,1-1.161,1.161H4.484A1.161,1.161,0,0,1,3.323,27.453Zm52.761,3.054a1.154,1.154,0,0,1,1.078-.731h1.5a1.161,1.161,0,0,1,1.078.729l1.1,2.755H54.982Zm-21.4,2.754V29.776h4.646v3.484ZM3.323,44.387l15.407-8.8h1.417L3.323,51.472Zm0,10.279,20.21-19.083h.792l-21,30ZM27.157,35.584h1.056L13.036,68.1H4.393Zm3.619,0h1.278L24.47,68.1H15.6Zm12.458,0L58.412,68.1h-8.87L41.953,35.584Zm2.563,0h1.056L69.619,68.1H60.975Zm3.892,0h.789l20.21,19.083V65.584Zm21,15.889L53.864,35.584h1.417l15.407,8.8Zm-44.136-24.7,4.112-4.112,6.342-2.114,6.342,2.114,4.112,4.112v6.488H41.651V28.615a1.161,1.161,0,0,0-1.161-1.161H33.521a1.161,1.161,0,0,0-1.161,1.161v4.646H26.552Zm-12.5,8.811L3.323,41.713V35.584ZM26.854,68.1l7.588-32.521h1.4V68.1ZM38.167,35.584h1.4L47.157,68.1h-8.99Zm32.521,6.129L59.962,35.584H70.688ZM66.042,27.453v-.3a23.394,23.394,0,0,1,.316-3.82l.506-3.036a1.161,1.161,0,0,1,1.145-.97h.711a1.161,1.161,0,0,1,1.145.97l.506,3.036a23.4,23.4,0,0,1,.316,3.82v.3a1.161,1.161,0,0,1-1.161,1.161H67.2A1.161,1.161,0,0,1,66.042,27.453Z" transform="translate(-1 0.429)" fill="#b7b9bf"/>
        <path id="Path_36951" data-name="Path 36951" d="M52.615,11.807a5.807,5.807,0,1,0-5.807,5.807,5.807,5.807,0,0,0,5.807-5.807Zm-5.807,3.484a3.484,3.484,0,1,1,3.484-3.484,3.484,3.484,0,0,1-3.484,3.484Z" transform="translate(5.459 -1.347)" fill="#b7b9bf"/>
        <path id="Path_36952" data-name="Path 36952" d="M37,10h3.484v2.323H37Z" transform="translate(4.813 -0.701)" fill="#b7b9bf"/>
        <path id="Path_36953" data-name="Path 36953" d="M0,0H2.323V3.484H0Z" transform="translate(51.095 0.007) rotate(-0.172)" fill="#b7b9bf"/>
        <path id="Path_36954" data-name="Path 36954" d="M0,0H3.484V2.323H0Z" transform="translate(51.098 20.911) rotate(-89.828)" fill="#b7b9bf"/>
        <path id="Path_36955" data-name="Path 36955" d="M0,0H3.285V2.323H0Z" transform="translate(56.084 4.999) rotate(-45)" fill="#b7b9bf"/>
        <path id="Path_36956" data-name="Path 36956" d="M0,0H2.323V3.285H0Z" transform="translate(44.471 4.318) rotate(-45)" fill="#b7b9bf"/>
        <path id="Path_36957" data-name="Path 36957" d="M0,0H2.323V3.285H0Z" transform="translate(56.076 15.918) rotate(-45)" fill="#b7b9bf"/>
        <path id="Path_36958" data-name="Path 36958" d="M0,0H3.285V2.323H0Z" transform="translate(44.47 16.611) rotate(-45)" fill="#b7b9bf"/>
        <path id="Path_36959" data-name="Path 36959" d="M52,10h3.484v2.323H52Z" transform="translate(7.235 -0.701)" fill="#b7b9bf"/>
      </g>
    </g>
  </g>
</svg>
